<svg width="28" height="28" viewBox="0 0 28 28" fill="none" xmlns="http://www.w3.org/2000/svg">
<path d="M0 2.625C0 2.39294 0.0921872 2.17038 0.256282 2.00628C0.420376 1.84219 0.642936 1.75 0.875 1.75H3.5C3.69518 1.75005 3.88474 1.81536 4.03853 1.93554C4.19232 2.05572 4.30152 2.22387 4.34875 2.41325L5.0575 5.25H25.375C25.5035 5.25012 25.6304 5.27853 25.7466 5.33321C25.8629 5.3879 25.9657 5.46751 26.0477 5.56641C26.1297 5.6653 26.1889 5.78104 26.2212 5.90541C26.2534 6.02977 26.2579 6.15971 26.2343 6.286L23.6093 20.286C23.5717 20.4865 23.4653 20.6676 23.3084 20.798C23.1515 20.9284 22.954 20.9998 22.75 21H7C6.79601 20.9998 6.59849 20.9284 6.44159 20.798C6.2847 20.6676 6.17829 20.4865 6.14075 20.286L3.5175 6.31225L2.8175 3.5H0.875C0.642936 3.5 0.420376 3.40781 0.256282 3.24372C0.0921872 3.07962 0 2.85706 0 2.625ZM8.75 21C7.82174 21 6.9315 21.3687 6.27513 22.0251C5.61875 22.6815 5.25 23.5717 5.25 24.5C5.25 25.4283 5.61875 26.3185 6.27513 26.9749C6.9315 27.6313 7.82174 28 8.75 28C9.67826 28 10.5685 27.6313 11.2249 26.9749C11.8813 26.3185 12.25 25.4283 12.25 24.5C12.25 23.5717 11.8813 22.6815 11.2249 22.0251C10.5685 21.3687 9.67826 21 8.75 21ZM21 21C20.0717 21 19.1815 21.3687 18.5251 22.0251C17.8687 22.6815 17.5 23.5717 17.5 24.5C17.5 25.4283 17.8687 26.3185 18.5251 26.9749C19.1815 27.6313 20.0717 28 21 28C21.9283 28 22.8185 27.6313 23.4749 26.9749C24.1313 26.3185 24.5 25.4283 24.5 24.5C24.5 23.5717 24.1313 22.6815 23.4749 22.0251C22.8185 21.3687 21.9283 21 21 21ZM8.75 22.75C9.21413 22.75 9.65925 22.9344 9.98744 23.2626C10.3156 23.5908 10.5 24.0359 10.5 24.5C10.5 24.9641 10.3156 25.4092 9.98744 25.7374C9.65925 26.0656 9.21413 26.25 8.75 26.25C8.28587 26.25 7.84075 26.0656 7.51256 25.7374C7.18437 25.4092 7 24.9641 7 24.5C7 24.0359 7.18437 23.5908 7.51256 23.2626C7.84075 22.9344 8.28587 22.75 8.75 22.75ZM21 22.75C21.4641 22.75 21.9092 22.9344 22.2374 23.2626C22.5656 23.5908 22.75 24.0359 22.75 24.5C22.75 24.9641 22.5656 25.4092 22.2374 25.7374C21.9092 26.0656 21.4641 26.25 21 26.25C20.5359 26.25 20.0908 26.0656 19.7626 25.7374C19.4344 25.4092 19.25 24.9641 19.25 24.5C19.25 24.0359 19.4344 23.5908 19.7626 23.2626C20.0908 22.9344 20.5359 22.75 21 22.75Z" fill="#F13D38"/>
</svg>
